<svg xmlns="http://www.w3.org/2000/svg" xmlns:xlink="http://www.w3.org/1999/xlink" viewBox="0 0 205.4 205.66"><defs><style>.cls-1{fill:none;}.cls-2{clip-path:url(#clip-path);}.cls-3,.cls-4{fill:#252525;}.cls-3{fill-rule:evenodd;}</style><clipPath id="clip-path" transform="translate(-0.3 -0.17)"><rect class="cls-1" width="206" height="206"/></clipPath></defs><title>Artwork 93</title><g id="Layer_2" data-name="Layer 2"><g id="Layer_1-2" data-name="Layer 1"><g id="Artwork_93" data-name="Artwork 93"><g class="cls-2"><g class="cls-2"><path class="cls-3" d="M77,4.49c1.75-.24,7-1,8.79-2.3s7.79-.34,10.4-.83a148.05,148.05,0,0,1,15-1.19c2.65,0,10.78,3.43,12.19,2.6s4.77.92,7.62,1.61a152.58,152.58,0,0,1,21,8c6.81,3.35,12,7,16,9.36s9.48,5.27,12.06,9.59,7.59,6.44,9.17,10,3.12,6.12,5.17,7.81,2.85,5.23,5.81,10.65,3.83,22.18,5,27.63.19,20.07-.57,26.37-6,22.46-6.16,24.93-3.8,7.58-5.54,11.79-8.77,12.64-11,16.36-6.3,6.25-9,10.7c-2,3.32-15.33,10.37-26,17.24-5,3.24-25.24,6.74-31,7.78s-11.17,3.13-13.54,3.22-9.89-2.63-13.33-2.19S72,199.3,65.59,197s-15.65-6.09-19.37-9.22-10.56-7-11.77-9.49-5.6-2.29-8.06-6.42-4.25-5.07-10.14-12.06c-8.07-9.57-8.57-16.19-12.74-21.42s-3.66-7.09-1.39-10.86S-.27,118.08.36,112.9s-.3-8.06.48-15.71S-.78,88.33,2.55,80,8.27,60.05,14.67,51.51,33.12,29.17,36.22,26.8s20.33-12,24.26-15.17,7-3.91,10.2-5.26A22.17,22.17,0,0,1,77,4.49M49.71,19.73c14.28-8.88,13.17-7.57,17.43-9.5S90,4.15,98.11,3.49s43,.91,68.6,25.39,23.1,35.33,26,39.59,3.13,10.18,5,13.25-.69,5.18.94,13.15.1,17.62-.22,23.4-1.81,16.21-5,20.21-4,9.67-8.4,16-9.61,19.39-29.14,28.89-16.34,9.73-32.38,12.16-19.87,7.2-55.48-3.68-56.88-54-60.57-63S1.33,96.92,4.34,93.55c1.86-2.08,1.74-13.9,2.45-17.23s3.3-9.83,7.47-18.56,21.15-29.15,35.45-38" transform="translate(-0.3 -0.17)"/><path class="cls-4" d="M45.68,84a4.36,4.36,0,0,0,.8.59,1.05,1.05,0,0,0,.87.13,1,1,0,0,0,.33-.21l.6-1.13.57.44a1.57,1.57,0,0,0,.57.33l1.67-.91.28,1.25a1.14,1.14,0,0,1-.89-.14,1.17,1.17,0,0,0-.93-.13,1.75,1.75,0,0,0-.13,1.89l.73.39a1.67,1.67,0,0,1-1,.77,7.46,7.46,0,0,1-1,.21c-.46.09-.76.15-.92.2l-.3.09c-.06-.25-.1-.45-.14-.6a2.3,2.3,0,0,0-.45-.86.91.91,0,0,0-.84-.23,1.09,1.09,0,0,0-1,.81l.26.85a3.77,3.77,0,0,0-.61-.8,2.17,2.17,0,0,0-.93-.56.77.77,0,0,0-.46.32,7.16,7.16,0,0,0-.45,1.08c.1.18.21.35.31.52a5.19,5.19,0,0,0,.43.59l-.88,0c0-.21.09-.39.11-.54a.78.78,0,0,0,0-.43.5.5,0,0,0-.28-.29.8.8,0,0,0-.57,0,3.4,3.4,0,0,1-.54.13,1,1,0,0,0-.21,1.08.78.78,0,0,0,.26.42l.27.14c-.1.3-.5.61-1.19,1s-1,.73-.84,1.15a2.88,2.88,0,0,0,.28.56l1.2.24a3.49,3.49,0,0,0-1,2.67,10.58,10.58,0,0,0-.55-1.17,8.5,8.5,0,0,1-.58-1.23,2.16,2.16,0,0,1,0-1.33,1.35,1.35,0,0,0-1.21-.41l-1.39.2a2.67,2.67,0,0,0,0-.89,2.45,2.45,0,0,0-.43-.7.71.71,0,0,0-.52,0,5.71,5.71,0,0,1-.55.24l-.56,1.8c-.27-.08-.47-.35-.6-.79L33,90.28a1.15,1.15,0,0,0-.34-.62,2.37,2.37,0,0,1,1.1-.79c.63-.31,1-.64,1.1-1,.36.52.72.72,1.09.6a2.18,2.18,0,0,0,.72-.47,2.3,2.3,0,0,1,.7-.47.66.66,0,0,1,.48,0l.86-.26a1.06,1.06,0,0,0,.67-.64l-.08-.27a1.26,1.26,0,0,0,.79.46,2.33,2.33,0,0,0,1-.11l.72-.25.71-.3a3.1,3.1,0,0,1,.76-.12,1.25,1.25,0,0,1,.14-.77A.84.84,0,0,1,44,85a3.69,3.69,0,0,1,.59-.11l.45-.07a.94.94,0,0,0,.67-.75m-2.93,33.56v-.69l.19,0,0,.72Zm1.42,2.24-.26-.13.14-.26ZM54.3,86.37a3.08,3.08,0,0,0,2.57.33,1.88,1.88,0,0,0,.6-.3,1.22,1.22,0,0,1,.12.68c0,.24-.08.46-.11.66a1.32,1.32,0,0,0-1.39-.29,1.21,1.21,0,0,0-.61.4.6.6,0,0,0-.18.71,1.43,1.43,0,0,0,.39.64l1.16.15a5.6,5.6,0,0,0-.35.55l-.24.46a.94.94,0,0,0,0,.5,1.89,1.89,0,0,0,.59.75q.49.4.54.57a.47.47,0,0,1,0,.35,1.63,1.63,0,0,1-.32.44,1.16,1.16,0,0,1,.78.66,2.2,2.2,0,0,1,0,.91,2.57,2.57,0,0,0,0,.82.69.69,0,0,0,.29.39,1.74,1.74,0,0,0,.64.29.87.87,0,0,1-.14.77,1.06,1.06,0,0,0-.19.75,1.55,1.55,0,0,0,.23.36,1.63,1.63,0,0,0,1.69.2l.39-.73c.33.14.68.71,1,1.71s.9,1.38,1.64,1.16a3.62,3.62,0,0,0,.51-.2l.12.4a3.79,3.79,0,0,0-1,.42.68.68,0,0,0-.33.67.64.64,0,0,0,.31.67,3.33,3.33,0,0,0,.92.29,1.12,1.12,0,0,0,.64-.28c.19-.17.35-.32.48-.46.08,0,.15.13.19.3a.53.53,0,0,1-.08.42,1,1,0,0,1-.66.43,4,4,0,0,0-.69.14.77.77,0,0,0-.43.29,1,1,0,0,0-.13.6c.12.2.25.4.39.59a1.37,1.37,0,0,0,.65.43l1.53-.69.21.66a4.3,4.3,0,0,0-.6.08,3.88,3.88,0,0,0-.51.12,1.54,1.54,0,0,0-.77.42,1.08,1.08,0,0,0-.2.64.68.68,0,0,0,.24.65l1,.58a1.91,1.91,0,0,0,.1.91c.06.19.13.41.23.65a2.28,2.28,0,0,1,.15.39,1.08,1.08,0,0,1,0,.75,1.16,1.16,0,0,1-.61.59c0-.08-.15-.1-.3,0l-.55.24a1.1,1.1,0,0,0-.41.48.81.81,0,0,0,0,.51,7.11,7.11,0,0,1,.37.83.58.58,0,0,1-.29.77l-.67.36a4.45,4.45,0,0,1-.42.16,5.11,5.11,0,0,1-1.28.19,6.81,6.81,0,0,0-1,.11,1.57,1.57,0,0,0-.69.41,2.2,2.2,0,0,0-.43.91c-.06,0-.26,0-.6-.1a1.47,1.47,0,0,0-.83-.07.86.86,0,0,0-.36.22l-.46.86a.62.62,0,0,0-.37-.39c-.2-.09-.39-.17-.56-.26l-1,.62a.68.68,0,0,0-.18,1,3.78,3.78,0,0,0-.71-.63.78.78,0,0,0-.73-.16.66.66,0,0,0-.35.25.68.68,0,0,1-.36.26,6.64,6.64,0,0,1-.79.15,4,4,0,0,0-.62.11c-.31.09-.49.2-.53.33a1.12,1.12,0,0,0,.06.6l.09.3a7.25,7.25,0,0,0-2,0,9,9,0,0,1-1.87,0,1.18,1.18,0,0,1-.74.65,2.77,2.77,0,0,1-1.15,0c-.51-.07-.77-.09-.79-.09l-.15-.46c.17,0,.36-.19.55-.56a.88.88,0,0,0-.65-.71c-.18,0-.32.06-.41.09a.23.23,0,0,0-.17.27l-.36-1.19a5.09,5.09,0,0,1,1.1-.52,2.66,2.66,0,0,1,2,.17,1.33,1.33,0,0,0,.15-.52,1.7,1.7,0,0,0-.1-.59,1.85,1.85,0,0,0-.25-.53,2.2,2.2,0,0,1-.18-.31c-.34-.06-.58-.33-.72-.79a4.39,4.39,0,0,1-.15-.6c0-.21-.08-.42-.11-.62a1,1,0,0,0-.36-.54.93.93,0,0,0-.76,0l-.33.11a2.72,2.72,0,0,0,.79-.85,1.19,1.19,0,0,0,.22-1.06,1,1,0,0,0-.28-.45.67.67,0,0,1-.66-.49,2.88,2.88,0,0,1-.08-.73,2.93,2.93,0,0,0-.09-.74.62.62,0,0,0-.39-.44,1.75,1.75,0,0,0-.94.09c.19-.29.39-.63.59-1a1.42,1.42,0,0,0,.14-1.09,2.52,2.52,0,0,0-.14-.32.7.7,0,0,1-.51-.46,2.56,2.56,0,0,1,0-.79,2.32,2.32,0,0,0,0-.9,1,1,0,0,0-1-.65,4.58,4.58,0,0,0-.07-1.25c-.09-.47-.21-1-.35-1.43s-.34-1.12-.52-1.71A5.3,5.3,0,0,1,40.28,96a3.9,3.9,0,0,0,.24-.41c0-.09,0-.17-.05-.27a.58.58,0,0,0-.08.46,1.34,1.34,0,0,0,.57.66,1.78,1.78,0,0,0,.89.3,4.85,4.85,0,0,0,.51-.23,4.19,4.19,0,0,1,.61-.26.94.94,0,0,1,.79.08.67.67,0,0,0-.21.75c.09.26.18.53.28.78.26.22.76.24,1.48.09s1.12-.13,1.18.08a.7.7,0,0,1,0,.43.92.92,0,0,0-.87-.13,2,2,0,0,0-.46.23,1.52,1.52,0,0,0-.4.4q-.15.23.12,1.08c.16.44.26.74.32.92.15.48.08.77-.21.85a1.27,1.27,0,0,1-.43,0,1.16,1.16,0,0,0-1.07.83c.06.23.13.44.19.63s.27.46.53.45a1.8,1.8,0,0,0-.33.68,1.31,1.31,0,0,0,0,.76.73.73,0,0,0,.27.42.88.88,0,0,0,.67.45A7.53,7.53,0,0,0,46,106c-.65.32-.89,1-.72,1.9a7.8,7.8,0,0,1,.2,1.64,1,1,0,0,0,0,.52,1.23,1.23,0,0,0,.53.65,2,2,0,0,0,.88.29l.57-.18c-.29.26-.56.52-.8.77a.76.76,0,0,0-.26.75.65.65,0,0,0,.24.29,1.76,1.76,0,0,1,.26.21.49.49,0,0,1,.11.18.85.85,0,0,1-.09.54,1,1,0,0,0-.07.6.62.62,0,0,0,.19.26l1.08.37a.94.94,0,0,0,.85-.13l.25-.48c.32.17.64.34,1,.5a1.33,1.33,0,0,0,.94.11l.35-.18.14-.26a3.61,3.61,0,0,0,.49,1.06.6.6,0,0,0,.83.16l.32-.34a.43.43,0,0,0,.16-.32L52.9,114l2.86-1.28a4.43,4.43,0,0,1,.51.75,1.73,1.73,0,0,0,.68.73.84.84,0,0,0,.39,0,.91.91,0,0,0,.55-.55c.13-.29.25-.57.36-.85l-.17-.56a1.1,1.1,0,0,0,.54,0,2.78,2.78,0,0,0,1-.72,2.61,2.61,0,0,1,.88-.68.53.53,0,0,1,.43,0l.59-.19a.54.54,0,0,0,.32-.5l-.32-.51a3.33,3.33,0,0,1-.13-.39,2,2,0,0,1,.24-1.56,2.61,2.61,0,0,1,.76.18,1,1,0,0,0,.92,0,.81.81,0,0,0,.33-.82,1.13,1.13,0,0,0-.61-.61l-.78-.38a3.3,3.3,0,0,0,.57-.77.94.94,0,0,0,.07-.77c-.37-.41-.62-.68-.76-.81s-.34-.15-.63,0l-.85.26a3,3,0,0,1,.79-.47.89.89,0,0,0,.62-.91,1.17,1.17,0,0,0-.57-1c-.39-.31-.61-.53-.65-.67a1,1,0,0,1,.25-.83,1.47,1.47,0,0,0,0-.35c-.06-.2-.25-.33-.56-.38a2.67,2.67,0,0,1-.57-.14.94.94,0,0,1-.5.52,1.18,1.18,0,0,1-.75-.1l-.88-.37a.7.7,0,0,0,.42-.51,1.42,1.42,0,0,0,0-.59,1.17,1.17,0,0,0-.39-.53L57,97.32a.92.92,0,0,0-.57,0,.54.54,0,0,0-.32.24,5.64,5.64,0,0,1-.08.62,1.18,1.18,0,0,0,.08.79l-.44-.57a1.18,1.18,0,0,0-.57-.35,2.08,2.08,0,0,1-.89.53,6.66,6.66,0,0,1-1,.17,4.2,4.2,0,0,0-.79.12,2.17,2.17,0,0,0-.53.23,1.69,1.69,0,0,0-.48.62,2.47,2.47,0,0,0-.92-.11,3.71,3.71,0,0,0-.91.16c-.23.07-.59.21-1.11.42l-.84.33a3.22,3.22,0,0,1-1.14.17l.25-1.2a1.74,1.74,0,0,0,.55.34.83.83,0,0,0,.48.07,2.9,2.9,0,0,0,.49-.71,1.09,1.09,0,0,0,.06-.79.88.88,0,0,1-.22-.36.8.8,0,0,0-.3-.39.58.58,0,0,1,.41-.45,1.78,1.78,0,0,1,.63,0,1.69,1.69,0,0,0,.6,0,.66.66,0,0,0,.42-.52c.41-.08.74-.16,1-.23a10.08,10.08,0,0,0,3.39-1.8A3.63,3.63,0,0,1,54,94a1.08,1.08,0,0,1,.2-1.09,2.63,2.63,0,0,1,1.21-.69.46.46,0,0,0,.29-.28c.06-.16.14-.32.2-.48a1.83,1.83,0,0,1-.52-.89,7.87,7.87,0,0,1-.2-1,7.68,7.68,0,0,0-.19-1,1.36,1.36,0,0,0-.53-.77,1.52,1.52,0,0,0-1.11,0l-.56.17a6.11,6.11,0,0,0,1.11-.78,1.07,1.07,0,0,0,.42-.92M37.23,90.11l-.46-.19-.11.36Zm9.79,27-.56,0a.71.71,0,0,0-.26,1,.85.85,0,0,0,.91,0Zm1.2-.36c.15.5.31.79.48.86l.43-.13c.26-.09.4-.23.41-.42a1.59,1.59,0,0,0-.26-.63.49.49,0,0,0-.6-.16.83.83,0,0,0-.46.48M42,94.35l0,.16-.37.11c0-.08.08-.15.12-.21s.09-.08.2-.06m3.5,9,.13.39-.2.06-.12-.39Zm5,11.78a.94.94,0,0,0,0,.62.67.67,0,0,0,1.05.47,1,1,0,0,0,.15-1.17.44.44,0,0,0-.53-.2l-.64.28M49,97.53q-.29.38-.24.54t.24.15a.59.59,0,0,0,.45.08.55.55,0,0,0,.38-.42,3.41,3.41,0,0,1-.37-.39.44.44,0,0,0-.46,0m5.64,15.91c-.11.2-.2.4-.29.59a.66.66,0,0,0,0,.61q.38.61,1.17.15a.55.55,0,0,0,.2-.68c-.07-.17-.11-.35-.18-.52a.85.85,0,0,0-.94-.15m-7.44-28a.46.46,0,0,0-.32.46,3.23,3.23,0,0,0,.21.91,4.84,4.84,0,0,0,.46.24.63.63,0,0,0,.48,0,1.61,1.61,0,0,0,.27-.21.56.56,0,0,0,.1-.62,5.13,5.13,0,0,1-.25-.69.88.88,0,0,0-1-.14M51,97.81c-.05.32.06.51.33.54a1,1,0,0,0,.7-.14.82.82,0,0,0,.55-.44,1.11,1.11,0,0,0,0-.74c-.16-.36-.52-.46-1.07-.28a1,1,0,0,0-.6.39.6.6,0,0,0,.1.67m2.74-.63a.64.64,0,0,0,.51.36,1.45,1.45,0,0,0,.71-.05l-.12-1.09a.51.51,0,0,0-.69-.36.8.8,0,0,0-.5.44.65.65,0,0,0,.09.7m5.39,15.09a.67.67,0,0,0-.21,1c.14.3.47.36,1,.2l.37-.11c.15-.12.18-.35.08-.68l-.13-.43c-.13-.15-.35-.18-.68-.08Zm-7.86-26.7c.19.35.39.49.61.43a2.33,2.33,0,0,0,.37-.22,1.37,1.37,0,0,1,.43-.24.58.58,0,0,1,.45.07,3.15,3.15,0,0,0-.67.39,3.56,3.56,0,0,1-.61.37,1,1,0,0,1-.77-.13Zm3.56,8.49c0,.37.24.5.57.4a5.65,5.65,0,0,0,.81-.29l-.29-1A.68.68,0,0,0,55.2,93a.75.75,0,0,0-.5.41.52.52,0,0,0,.12.61m1.44,1a3.65,3.65,0,0,0-.41.52.61.61,0,0,0-.06.53.41.41,0,0,0,.13.18.79.79,0,0,0,1,.29,6,6,0,0,0,.23-.59.58.58,0,0,0-.08-.57l-.47-.29a.47.47,0,0,0-.37-.07m-2.8-9.77c.24-.07.42-.06.53.06l.08.26c-.17.15-.31.15-.4,0l-.21-.32m9.6,24.13a1.42,1.42,0,0,0,.86.43.65.65,0,0,0,.35-.51,1,1,0,0,0,0-.49.91.91,0,0,0-.75-.1c-.37.12-.51.34-.41.67M57.62,88.2c.2.23.39.45.6.65a.31.31,0,0,1-.08.32A1.4,1.4,0,0,1,58,89a.44.44,0,0,0-.36-.16l-.27.08Z" transform="translate(-0.3 -0.17)"/><path class="cls-4" d="M72.55,85.81a24.53,24.53,0,0,0,4.41-1q3.65-1,5.15,1.75a.59.59,0,0,0,0,.37,3.59,3.59,0,0,0,.12.47,3.3,3.3,0,0,1,.13.54.65.65,0,0,0,.67.19,1.18,1.18,0,0,0,.43-.24,2.08,2.08,0,0,0,.32-.39,1.15,1.15,0,0,0-.07.71q.08.23.72.69a1.92,1.92,0,0,1,.75.77,1.22,1.22,0,0,0,1.49.16l.86,1.39c-.17-.33-.47-.42-.91-.29a1.55,1.55,0,0,0-.41.2c-.15.09-.16.3-.06.63l.17.56a2,2,0,0,0,.93.14c.5,0,.79.16.89.46l.05.39a14,14,0,0,0-1.08.91,1.21,1.21,0,0,0-.4,1,1.45,1.45,0,0,1,.26.4c.08.19.15.38.22.58l-.57.17a1.06,1.06,0,0,0-.46-1.5,1.53,1.53,0,0,0-1-.11,8.14,8.14,0,0,1-2,1.07,9.33,9.33,0,0,0-2,1.09,1.81,1.81,0,0,0-1.54-.23,5.19,5.19,0,0,1-1.31.17,1.7,1.7,0,0,0-.46.61c-.12.25-.23.5-.34.76l-1.41-.09a5.41,5.41,0,0,0-1.86.08,1.87,1.87,0,0,0-.91.57,1.6,1.6,0,0,1-1.09.08,2.79,2.79,0,0,0-1,0c-.31.09-.48.39-.53.88l.45,2.14a.67.67,0,0,1-.34.09h-.37c-.15,0-.25.19-.29.45s.44.55,1,.6.85.26.88.67c.2,0,.47.37.79,1s.74.89,1.27.73c0-.11.19-.21.46-.29a4.13,4.13,0,0,0,.55-.2,3,3,0,0,1,.72,1,1.56,1.56,0,0,0,1.1.92l.66-.21a.38.38,0,0,1,.09.46c-.07.2,0,.34.17.4a1.11,1.11,0,0,1,.5-.94,3.67,3.67,0,0,1,.9-.43,12.53,12.53,0,0,1,1.26-.26c.62-.11,1-.2,1.32-.28l.81-.14c.26-.06.58-.14.95-.26a7,7,0,0,0,1.81-.83,4,4,0,0,0,1.27-1.3,1.49,1.49,0,0,1-.41-.63,1.89,1.89,0,0,1,0-.81,4.86,4.86,0,0,0,.07-.7,1.81,1.81,0,0,1,.66-.12l.46,0c.29-.09.38-.31.3-.67l-1.22-.87a4.39,4.39,0,0,0,.52-.8,1.66,1.66,0,0,1,.76-.81,1.4,1.4,0,0,1,1,.2l.86-.27a1.44,1.44,0,0,1,.22.37c.07.24-.08.49-.45.73s-.55.47-.55.66a1.73,1.73,0,0,0,.08.56,4.16,4.16,0,0,0,.26.6,3.4,3.4,0,0,1,.24.57,1.15,1.15,0,0,1-.17,1.07l-.81.07a2.58,2.58,0,0,0-.55.1.83.83,0,0,0-.36.23,1,1,0,0,0-.17.51,2.79,2.79,0,0,0,.39.73c.21.31.3.48.32.5a.67.67,0,0,1-.13.65l-.6.19a3,3,0,0,0-1.45.81,1.61,1.61,0,0,0-.31,1.11c0,.34-.34.62-.92.84s-.89.5-1,.83a3.47,3.47,0,0,0-.83.06,8.81,8.81,0,0,0-.89.24c-.18,0-.35.11-.51.17a4.59,4.59,0,0,1-.48.17,6,6,0,0,1-1.22.25,3.22,3.22,0,0,1-1.13-.14,1.38,1.38,0,0,0,0-.58.88.88,0,0,0-.4-.48,2.72,2.72,0,0,0-.73-.25,2.69,2.69,0,0,1-.67.31,3.7,3.7,0,0,1-1.55.15,6.37,6.37,0,0,1-1.74-.48,1.46,1.46,0,0,0-.72-.73,7.53,7.53,0,0,0-1.33-.52c-.05-.15,0-.41.25-.76a1.23,1.23,0,0,0,.27-.73.64.64,0,0,0-.32-.31.57.57,0,0,0-.36-.14,1.51,1.51,0,0,0-.46.07l-.46.14a.77.77,0,0,1-1-.3,1,1,0,0,0,0-.54,3.22,3.22,0,0,0-.71-1,3.46,3.46,0,0,1-.67-1,1.1,1.1,0,0,1,.15-.91c0-.28-.08-.48-.11-.62A7.68,7.68,0,0,0,67.16,99a8.3,8.3,0,0,1-.87-1.45,2.45,2.45,0,0,1-.1-.84,2.37,2.37,0,0,1,.33-.9,1.61,1.61,0,0,1-.47-.68c-.11-.38.15-.92.78-1.63s.89-1.33.72-1.84a2.17,2.17,0,0,0-.52-.85l1.15-.64a1.58,1.58,0,0,0,.71-1.09c-.12-.25-.2-.41-.22-.48C68.49,88,69,87.47,70.29,87a6.05,6.05,0,0,0,2.26-1.19M67,95,67.3,96l.46-.14a3.23,3.23,0,0,0,.37-.37c.1-.13.09-.32,0-.57a.73.73,0,0,0-.75-.09Zm2.28,3.75q.09.33.12.51a.44.44,0,0,0,.35.29.58.58,0,0,0,.59-.44,1.2,1.2,0,0,0,0-.89c-.14-.12-.25-.17-.34-.14s-.12.13-.23.37-.26.34-.44.3m6-11.73-.3.09-.2.06c-.28.09-.39.25-.32.46a2.64,2.64,0,0,0,.26.45,2.8,2.8,0,0,1,.32.61.57.57,0,0,1,0,.43,25.47,25.47,0,0,0-3.17,1.18,4.75,4.75,0,0,0-1.94,1.52l-.72-.38a.6.6,0,0,0-.47,0l-.24.15c-.18.06-.2.3-.06.74a.57.57,0,0,0,.19.5c.12.1.38.08.78,0l.72-.26a1,1,0,0,1,.35.44c.07.21-.07.5-.44.87a2.7,2.7,0,0,0-.6.78,2.42,2.42,0,0,0,.9,1.23,1.52,1.52,0,0,0,1.16.06,7.66,7.66,0,0,0,1.25-.59,7.55,7.55,0,0,1,1.19-.56,1.75,1.75,0,0,1,1.15,0l-.29.7a.71.71,0,0,0,0,.59c.06.22.21.3.45.22a2.53,2.53,0,0,0,.92-.1,1.59,1.59,0,0,0,1.26-1.29.7.7,0,0,0,1,.2.84.84,0,0,1-.12-.51c0-.19,0-.4.07-.6a1.37,1.37,0,0,0,.76-.29,3.66,3.66,0,0,1,.53-.33.67.67,0,0,1,.65.24,7.11,7.11,0,0,0-.67.48.56.56,0,0,0-.24.52l.15.14a.57.57,0,0,0,.46.11.89.89,0,0,0,.46-.41c.12-.22.24-.42.35-.6l.36.21a2.88,2.88,0,0,0,1-.11.71.71,0,0,0,.58-.71.65.65,0,0,0-.37-.54,1,1,0,0,1-.41-.35A1.32,1.32,0,0,0,82.42,91a3.43,3.43,0,0,0-.79-1,3,3,0,0,1-.81-1,1.19,1.19,0,0,1,.08-.9,2.83,2.83,0,0,0-1.54-.3,7.94,7.94,0,0,0-1.84.36c-.27.08-.52.17-.78.26s-.49.18-.74.25a.55.55,0,0,1-.28-.35,1.19,1.19,0,0,1,0-.5c0-.17,0-.39.09-.64Zm-5.2,1.24-.23.47a.63.63,0,0,0,0,.48.77.77,0,0,0,.15.2.39.39,0,0,0,.43.06,2.54,2.54,0,0,1,.45-.1.49.49,0,0,0,.17-.49.63.63,0,0,0-.36-.34l-.56-.28m14.19,18.7a.41.41,0,0,0,.42.06,1.63,1.63,0,0,1,.4-.08c.23,0,.36-.07.4-.27a.65.65,0,0,0-.14-.54.57.57,0,0,0-.68-.22.74.74,0,0,0-.5.42.58.58,0,0,0,.1.63M82.89,90.41a.29.29,0,0,0,.35.11l.45-.18c.2,0,.25-.14.18-.38l-.12-.36a.6.6,0,0,0-.48,0,.67.67,0,0,0-.38.32.55.55,0,0,0,0,.53m1.34,1.65.11.36.27-.08-.06-.17Z" transform="translate(-0.3 -0.17)"/><path class="cls-4" d="M96.68,78.13l.61-.3a5.8,5.8,0,0,1,.61-.21,3.91,3.91,0,0,1,1.3-.21,2.28,2.28,0,0,1,1.21.37,1.86,1.86,0,0,0,1,.7,3.75,3.75,0,0,0,1.35.22l.63-.2c.66,1.44,1.14,2.5,1.44,3.19a19.8,19.8,0,0,1,.82,2.26,18.82,18.82,0,0,1,.67,2.94Q107.38,90.48,108,92a20.3,20.3,0,0,0,1.54,3,.75.75,0,0,0,.7.18,1.47,1.47,0,0,0,.57-.48,1.5,1.5,0,0,1,.55-.48.8.8,0,0,1,.78.31l1.51-.29c.08.26.19.4.34.4,0-.31.18-.52.63-.66l.54-.18a.72.72,0,0,0,.39-.33c.36.16.54.31.53.45a1,1,0,0,1-.49.16,2.83,2.83,0,0,0-.45.06.82.82,0,0,0-.57.76.71.71,0,0,0,.47.68,1.71,1.71,0,0,0,.92.18c.3,0,.57-.07.79-.08s.37.11.4.41a1.76,1.76,0,0,1-.7.63,1,1,0,0,0-.53.87l.7.29a13.24,13.24,0,0,1-2,1c-.8.32-1.6.62-2.39.86a4.32,4.32,0,0,0-.49-.77.47.47,0,0,0-.53-.18.67.67,0,0,0-.39.37,4.27,4.27,0,0,0-.24.51.39.39,0,0,0,.13.43,1.21,1.21,0,0,1-.4.23c-.22.07-.51,0-.88-.33a.77.77,0,0,0-1-.1,1.2,1.2,0,0,1-.11,1,1.3,1.3,0,0,1-.7.5l-2.37.43a.39.39,0,0,0-.19-.21,2.56,2.56,0,0,1-.33-.21c-.3,0-.54.15-.71.52s-.35.57-.59.58l-4.34,1.33a2.42,2.42,0,0,0-.58-1.09,3.14,3.14,0,0,1-.6-.86.89.89,0,0,1,.12-.77,4.06,4.06,0,0,1,.8-.35,7.32,7.32,0,0,1,1.11-.2,5.29,5.29,0,0,0,1-.16,2.08,2.08,0,0,0,1.16-.93l-.46-1.49a1.91,1.91,0,0,0,.43-.06,2,2,0,0,0,.89-.58,1.44,1.44,0,0,0,.43-1l-.41-1.9a1.31,1.31,0,0,1,.62-.18,2.63,2.63,0,0,0,.57-.08.87.87,0,0,0,.63-.81,1.44,1.44,0,0,0-.85-1.08.67.67,0,0,1-.27.2,2,2,0,0,1-.45,0,1.32,1.32,0,0,0-.41,0,.61.61,0,0,0-.28.15c-.15-.24-.08-.6.21-1.09s.4-.81.34-1-.31-.37-.73-.5c0-.15.05-.47.31-1A1.64,1.64,0,0,0,103,88a.5.5,0,0,0-.2-.3,3.52,3.52,0,0,0-1.08,0c-.64,0-1.06,0-1.25-.31.11-.39.22-.73.31-1a.8.8,0,0,1,.5-.53,1.56,1.56,0,0,0,1,1c.15,0,.29-.08.44-.3a3,3,0,0,1,.25-.39,3.34,3.34,0,0,0-1.79-.75c-.9-.18-1.43-.55-1.6-1.09a2.49,2.49,0,0,1-.09-.63,1,1,0,0,0-.7-.37,2.74,2.74,0,0,0-.89.13c-.44.16-.74.27-.92.32-.42.13-.67.07-.76-.2a2.14,2.14,0,0,1,0-.8,1.26,1.26,0,0,0-.83-1.08,1,1,0,0,1-.66.82,2.8,2.8,0,0,1-1,0,4.61,4.61,0,0,0-.85,0,.44.44,0,0,0-.32.37,2.2,2.2,0,0,0,.16,1l.14.46c-.47.15-.9-.06-1.32-.62a2.18,2.18,0,0,0-1.19-.95,6,6,0,0,1,.44-.83,3.22,3.22,0,0,0,.47-1.15,1.49,1.49,0,0,0,1,.38l1.29.14a1.92,1.92,0,0,0,.79,0,1.78,1.78,0,0,0,.82-.65,1.88,1.88,0,0,1,.71-.61.6.6,0,0,1,.44,0,1,1,0,0,0,1-1.09Zm6,20.59a.56.56,0,0,0,.5.32,1,1,0,0,0,.64-.16l-.14-.47a.45.45,0,0,0-.29-.34.7.7,0,0,0-.49,0c-.35.11-.42.33-.22.68m1.79.86-.25-.11.16.53ZM99.21,80.46l.25.83,1-.32a1.54,1.54,0,0,1-.45-.4c-.22-.25-.42-.34-.6-.29a.66.66,0,0,0-.23.18M100.4,83a.62.62,0,0,0-.23.54c.09.28.14.48.18.59a2.22,2.22,0,0,0,.57.21,1.18,1.18,0,0,0,.53,0,1,1,0,0,0,.47-.36l0-.16a7.49,7.49,0,0,0-.56-.88.44.44,0,0,0-.54-.12,1.19,1.19,0,0,0-.37.22M99,78l.63.71a2.14,2.14,0,0,1,.13-.22.15.15,0,0,1,.18-.06L99.75,78a.46.46,0,0,0-.44-.12A2.16,2.16,0,0,1,99,78m6.32,19.72.26.83.36-.12c.09-.1.1-.27,0-.51-.33-.21-.54-.27-.64-.2m-2.86-18a1,1,0,0,0-.41.62.67.67,0,0,0,.11.6c.11.16.34.18.67.08l.4-.12a1.21,1.21,0,0,0,.14-1.17.7.7,0,0,0-.91,0m.65,3.75a1.09,1.09,0,0,0,1,.25.46.46,0,0,0,.29-.24l-.14-.46c0-.42-.26-.54-.83-.36-.38.11-.53.31-.45.57a.83.83,0,0,0,.18.24m.73,1.29.26.83a.48.48,0,0,0,.48.17c.16,0,.32-.24.48-.58a2,2,0,0,0,.22-.57l-.1-.08-.28.52.13,0a1.62,1.62,0,0,0-.42-.4.57.57,0,0,0-.5-.11.64.64,0,0,0-.27.19m3.7,10.08a.38.38,0,0,0-.26.2q-.11.17,0,.27l.36-.11Zm-2.34-7.57,0,.68c.13.18.37.21.73.1l.36-.11a.93.93,0,0,0-.32-.68c-.21-.19-.47-.18-.79,0m-3.31-10.7a.4.4,0,0,1,.49,0l.33.32a.68.68,0,0,1-.34,0,.39.39,0,0,0-.37.06Zm8,19.79L110,97a.58.58,0,0,0,.43.44c.31-.1.47-.22.5-.37a.68.68,0,0,0,0-.56.84.84,0,0,0-.35-.5.58.58,0,0,0-.52-.1c-.13,0-.23.18-.31.42M113.35,95a.66.66,0,0,0-.6-.18.88.88,0,0,0-.48.44.93.93,0,0,0-.07.71l1.12.56.45-.75c0-.21-.07-.36-.11-.48a.45.45,0,0,0-.31-.3" transform="translate(-0.3 -0.17)"/><path class="cls-4" d="M123.28,61.45a4.73,4.73,0,0,1,1.42-1.15,10.48,10.48,0,0,1,1.93-.79c.68-.21,1.67-.46,3-.75s2-.45,2.14-.5a7.82,7.82,0,0,1,1.25,1.3,2.38,2.38,0,0,0,1.73,1.08,3.45,3.45,0,0,0-.54.26.55.55,0,0,0-.24.38l.13.43c.09.28.22.43.43.45l.63-.2c-.38.11-.7.49-1,1.13a1.76,1.76,0,0,1-1,1.12,1.45,1.45,0,0,1-.49.05.59.59,0,0,0-.19.56.63.63,0,0,0,.27.37,1.88,1.88,0,0,0,.67.21c.15.94.35,2,.63,3.09s.54,2.12.81,3c.3,1,.83,2.55,1.55,4.62s1.24,3.56,1.52,4.49c0,.25-.29.55-.76.88s-.66.63-.58.87a1.51,1.51,0,0,0,.43.52c.25.23.66.23,1.21,0l.25.22c-.58.47-.73,1.46-.44,3s0,2.47-.88,2.84a3.12,3.12,0,0,1-2.12,2.8l-3.87,1.64-.14.23a.88.88,0,0,0-.9-.08,1.45,1.45,0,0,1-.43.82,2.4,2.4,0,0,1-.83.47A10.14,10.14,0,0,1,127,95a9.45,9.45,0,0,0-2,.25c0-.45-.41-.81-1.17-1.09s-1.18-.54-1.26-.8a1.17,1.17,0,0,1,.13-.88,1.26,1.26,0,0,0-1-.89.86.86,0,0,1-.89-.09,1.36,1.36,0,0,0,0-.6,1.12,1.12,0,0,0-.91-.8,8.45,8.45,0,0,0-1.27-.16c-.08-.23-.23-.62-.44-1.14s-.36-.85-.4-1a2.9,2.9,0,0,1-.12-1.56,1.45,1.45,0,0,1,1.09-.91,6.54,6.54,0,0,1-.25-1.12,1.21,1.21,0,0,1,.24-.83.37.37,0,0,1,.25-.22,2.5,2.5,0,0,1,.49-.07,1.91,1.91,0,0,0,.46,0,.63.63,0,0,0,.42-.64.93.93,0,0,0-.21-.6,3.8,3.8,0,0,1-.23-.35.67.67,0,0,1,.23-.65c.42,0,.89.51,1.39,1.4a1.61,1.61,0,0,0,2,1,2,2,0,0,1-.42.71l-.68.79a2.24,2.24,0,0,1,.26.42,4.85,4.85,0,0,1,.22.55c.15.7.3,1.39.46,2.07a1.4,1.4,0,0,0,1,.21c.49,0,.75.14.78.47a.69.69,0,0,0-.51,0,3.15,3.15,0,0,1-.6.15,1.08,1.08,0,0,0-.18,1.32,1.37,1.37,0,0,0,1.2.57c.59,0,.93.21,1,.52a1.46,1.46,0,0,1,0,.63,1,1,0,0,1,.78-.11.72.72,0,0,1,.62.55l.16-.45a1.06,1.06,0,0,0,.53,0,6,6,0,0,0,.66-.34,5.25,5.25,0,0,1,.83-.38,1.44,1.44,0,0,1,.52,0l.88.47a.6.6,0,0,0,.72-.1c.12-.08.15-.25.11-.49s0-.42.06-.5l-.23-.14a2.9,2.9,0,0,1,1-.75,3.76,3.76,0,0,0,1-.73l.78-.28a1.12,1.12,0,0,1,.77,0c.31-.24.44-.76.4-1.56s.27-1.25.93-1.38a1,1,0,0,0,0-.69,3.23,3.23,0,0,0-.3-.6,3.35,3.35,0,0,1-.31-.66,1.35,1.35,0,0,1,.09-1,1.72,1.72,0,0,0,0-1,3.72,3.72,0,0,0-.84-1.22,4.08,4.08,0,0,1-.8-1.13,1.46,1.46,0,0,1,0-.58,2,2,0,0,1,.28-.69q-1.56-3.78-3.14-7.57a1.77,1.77,0,0,0,.07-.54,2.89,2.89,0,0,0-.17-.83c-.07-.22-.2-.57-.39-1s-.32-.82-.39-1l-.1-.34a1.57,1.57,0,0,1-1.11-1c-.32-.58-.49-.89-.54-1a.48.48,0,0,0,.18-.34,1,1,0,0,0,0-.38,1.05,1.05,0,0,0-.35-.55l-1.75,0-.2-.62.87-.27a.73.73,0,0,0,.58-.69.34.34,0,0,0-.2-.42l-.48-.24a6.76,6.76,0,0,0-.8.34l-.47.24a1.11,1.11,0,0,1-.89-.09l-.6.19a1.39,1.39,0,0,1-1.48-.23M123.89,93a1.67,1.67,0,0,1,0,.48,1.76,1.76,0,0,0,0,.51.34.34,0,0,0,.22.22,4.49,4.49,0,0,0,0-.91.86.86,0,0,0-.2-.3m1-.31c-.09,0-.15,0-.21.15a.37.37,0,0,0,0,.3L125,93Zm.57,1.28-.33.1.08.26.33-.1Zm-.53-2.66c-.12.13-.14.24,0,.32a2.36,2.36,0,0,0,.44.25.37.37,0,0,1,.27-.27,3.67,3.67,0,0,0-.29-.36c-.07-.09-.19-.07-.38.06m10.78-1.94-.08.67.8.12c.15,0,.23-.2.26-.45s-.1-.38-.4-.34a1.32,1.32,0,0,1-.58,0m-.35-1.16.26-.08,0,.16-.27.09ZM130.7,64.69l.11.37L131,65c0-.1-.11-.2-.3-.31m2.89,8.69a.45.45,0,0,0,.46,0,2.17,2.17,0,0,1,.4-.09,2,2,0,0,0,.2-.51.31.31,0,0,0-.06-.21.54.54,0,0,0-.45,0,.6.6,0,0,0-.36.29,1.87,1.87,0,0,0-.19.52M133,71a.91.91,0,0,0,.91.13.94.94,0,0,1,.12-.3.5.5,0,0,0,.08-.35.81.81,0,0,0-.86-.09c-.34.1-.42.3-.25.61m-.41-1.89.47-.15a.83.83,0,0,0,0-.58.32.32,0,0,0-.3,0,.46.46,0,0,0-.16.78m1.85,6,.3,1c.62-.06.88-.36.81-.9a.72.72,0,0,0-.57-.22l-.54.17m.91,2,.74.53.15-.45a.91.91,0,0,0-.89-.08m1.58,2.3-.26.08.16.53.26-.08ZM131.8,59.69l-.27.08.19.63.27-.09Zm.66-1.83a1.38,1.38,0,0,1,.82-.62,2,2,0,0,1,.82-.05,2.51,2.51,0,0,1,.89.29,1,1,0,0,1,0,.68.68.68,0,0,0,0,.65,2,2,0,0,0-1.26-.46,1.9,1.9,0,0,1-1.28-.49" transform="translate(-0.3 -0.17)"/><path class="cls-4" d="M149.09,59.41a9,9,0,0,0,.69.87.62.62,0,0,0,.67.1l.33-.1c.09-.17.18-.34.29-.52a.61.61,0,0,1,.32-.32.77.77,0,0,1,.55.16.81.81,0,0,0,.72.1,2.86,2.86,0,0,1,.41-.2.37.37,0,0,1,.39.06,3.7,3.7,0,0,1,.36.5A2.62,2.62,0,0,1,156,61.22a6.6,6.6,0,0,0,1.64,1.53,2,2,0,0,1,.36.68,4.39,4.39,0,0,1,.1,1.66,4.26,4.26,0,0,0,0,1.42,1.08,1.08,0,0,0,.49.65,2.72,2.72,0,0,0,1.17.31c0,.09.08.22.14.42s.11.37.22.72.19.61.24.79a2,2,0,0,1,.11,1c-.06.26-.28.45-.66.56a1,1,0,0,1-.28.06.27.27,0,0,0-.12.35c.05.16.09.28.11.36a1.88,1.88,0,0,0,1,0c.45-.08.72,0,.8.24a1.23,1.23,0,0,1,0,.57s-.18.06-.44.08a3.16,3.16,0,0,0-.54.08.7.7,0,0,0-.55.59,2,2,0,0,0,0,.58c.09.28.43.37,1,.27s.94-.07,1.08.07a1.91,1.91,0,0,0,0,1.06,3.2,3.2,0,0,0,.41.8c.2.27.37.49.52.66a.82.82,0,0,0,.69.25c.31,0,.5.08.55.25a.76.76,0,0,1,0,.37l-.49.15a.28.28,0,0,0,0,.31c0,.48.23.65.7.5l.43-.13a.71.71,0,0,1,.58,0c.28-.44.5-.83.69-1.17a.81.81,0,0,0,0-.94l-.22-.12.94-1.41.42.82a5.8,5.8,0,0,1,.42,1,3,3,0,0,1,.07,1.39,4.06,4.06,0,0,1-1.17,1.9A5.41,5.41,0,0,1,164.31,81a4.85,4.85,0,0,1-.71.15,5.46,5.46,0,0,0-2.31-.43,9.91,9.91,0,0,0-2.61.46,12.58,12.58,0,0,0-3.44,1.64c-.11.52-.32.82-.63.92a2.43,2.43,0,0,1-.93-.08,2.38,2.38,0,0,0-1-.06.87.87,0,0,0-.43.35,10.3,10.3,0,0,1-3.77.44,6.17,6.17,0,0,1-3.32-1.19c-.88-1.47-1.78-2.94-2.66-4.41a3.51,3.51,0,0,0,.45-2c0-1,.28-1.61.74-1.76a2.35,2.35,0,0,1,1,0l.28-.61a.85.85,0,0,0,.06-.62,1.07,1.07,0,0,0-.11-.26c-.23-.1-.37-.22-.41-.38a3.2,3.2,0,0,1,.13-.91,2,2,0,0,0,0-1.07c-.25-.52-.5-1-.74-1.58a1.46,1.46,0,0,0-1.4-.77.73.73,0,0,1-.75-.08,1,1,0,0,1-.32-.46,1.07,1.07,0,0,1,0-.66,2.33,2.33,0,0,1,.46-2.33,2.69,2.69,0,0,0,.65-2.14,1.85,1.85,0,0,1,.61-.48,4.41,4.41,0,0,1,.81-.32l.86-.24.5-.11a2.57,2.57,0,0,0,1-.52,1.6,1.6,0,0,0,.42-1,1.44,1.44,0,0,1,.49-.32c.21-.09.45-.17.7-.25a2.78,2.78,0,0,0,1.1-.54M144.63,76.9l.19.63.56-.18a.28.28,0,0,0,.07-.35,1.69,1.69,0,0,1-.07-.34Zm10.86-7.29a1.42,1.42,0,0,0-.52,0,2,2,0,0,0-.82.52,4.7,4.7,0,0,0-.72,1,1.11,1.11,0,0,0-.94-.11,2.11,2.11,0,0,0-.64.34l-.64.45a6.72,6.72,0,0,1-1.65,2.33A11.45,11.45,0,0,1,147,75.94a2.49,2.49,0,0,0-.44,2c.13.79.26,1.53.41,2.23.59.46,1.09.82,1.47,1.07a1.65,1.65,0,0,0,1.43.12,4.85,4.85,0,0,0,2.2.25,13.07,13.07,0,0,0,2.61-.54l1.57-.49,1.4-.43a.63.63,0,0,0,.13-.62,2.21,2.21,0,0,0-.26-.46,2.56,2.56,0,0,1-.31-.56.85.85,0,0,1,0-.42,1.09,1.09,0,0,1,.29-.43,2,2,0,0,0,.62-.08c.47-.14.64-.67.52-1.56s.07-1.51.59-1.78a1.7,1.7,0,0,0,0-.43c-.07-.22-.29-.32-.69-.31a1.06,1.06,0,0,1-.78-.21c-.12-.38-.07-.6.15-.67l.47-.14a.42.42,0,0,0,.25-.22l-.24-.82a1.13,1.13,0,0,1-.91-.69,2.53,2.53,0,0,1,0-1,3.62,3.62,0,0,0,.06-.79.92.92,0,0,0-.8.71,2.2,2.2,0,0,1-.44.9,1.27,1.27,0,0,1-.39-.46,3.16,3.16,0,0,0-.39-.53m-7.71-6q-1-.66-1.5-.51c-.26.08-.5.62-.72,1.61s-.63,1.52-1.27,1.57a9.72,9.72,0,0,0,.27,1.33l.25.93c.1.33.21.67.33,1a11.34,11.34,0,0,0,.57,1.32,1.06,1.06,0,0,0,.36,0c.14,0,.22-.19.24-.46a.72.72,0,0,1,.2-.51l.25.14a1.33,1.33,0,0,0,.68,1.09,1.6,1.6,0,0,0,1.29.11,1.33,1.33,0,0,0,.6-.39c.14-.8.91-1.53,2.31-2.2a9.37,9.37,0,0,0,2.58-1.59,1.37,1.37,0,0,0-.06-.63l-.12-.4a.86.86,0,0,1,0-.54.81.81,0,0,1,.52-.34.72.72,0,0,0,0-.48,1.36,1.36,0,0,0-.46-.54,1.54,1.54,0,0,1-.45-.52,2.26,2.26,0,0,1-1.49-.67,12.36,12.36,0,0,0-1-.81,2.18,2.18,0,0,0-.61,0,.89.89,0,0,0-.29.2,2.93,2.93,0,0,0-.33.4Zm5.5,18.71.16.53a1.16,1.16,0,0,1,.38-.15c.16,0,.23-.12.23-.22l-.37-.2a.39.39,0,0,0-.4,0m-5.65-22.1.15.47.57-.18a.45.45,0,0,0,.09-.38.4.4,0,0,0-.37,0l-.44.13m8.44,6,.2.63.56-.18c0-.16.09-.32.13-.51a.45.45,0,0,0-.43-.08l-.46.14" transform="translate(-0.3 -0.17)"/><path class="cls-4" d="M69.22,130.87a.82.82,0,0,1,.52-.56,3.64,3.64,0,0,1,.94,0,2.8,2.8,0,0,0,1.06,0,1.09,1.09,0,0,0,.55-.43.47.47,0,0,1,.25-.25.54.54,0,0,1,.36.09.68.68,0,0,0,.32.1,4,4,0,0,0,.86-.16,8.66,8.66,0,0,0,1.46-.7,10.58,10.58,0,0,1,1.24-.64,2.09,2.09,0,0,1,1.65.18l.35-.61.61-.13.41-.12a19,19,0,0,0,1.94-.74q1.32-.54,2-.75a7.43,7.43,0,0,1,1.57-.32,3.93,3.93,0,0,1,1.45.12c0,.43,0,.86,0,1.26a.88.88,0,0,0,.35.44l.72.32a4.13,4.13,0,0,0-.65.9,1.18,1.18,0,0,0-.14.89.8.8,0,0,0,.32.45,6.22,6.22,0,0,0,.68.15,1.2,1.2,0,0,0,.63,0c-.18.18-.37.34-.55.49a1.66,1.66,0,0,1-.5.31.75.75,0,0,1-.77-.24s0-.19.12-.52a1.54,1.54,0,0,0,0-.87,3.16,3.16,0,0,0-.16-.31.8.8,0,0,0-.86-.31,2.27,2.27,0,0,0-.51.29,3.49,3.49,0,0,1-.61.31.93.93,0,0,1-.59,0,.44.44,0,0,1-.14-.48,3.75,3.75,0,0,0,.17-.47.67.67,0,0,0,.65.13,1.68,1.68,0,0,0,.5-.32,1.93,1.93,0,0,1,.5-.32.46.46,0,0,0,.07-.38,1.33,1.33,0,0,1-.2-.41.71.71,0,0,0-.68-.19,1.79,1.79,0,0,0-.59.44,1.67,1.67,0,0,1-.56.42.58.58,0,0,1-.45-.07,4.53,4.53,0,0,1-.59.21,7.9,7.9,0,0,1-.87.2,7.93,7.93,0,0,0-.89.2,2.16,2.16,0,0,0-.92.49,1.49,1.49,0,0,0-.41,1l.21.66a1.86,1.86,0,0,0-1.17-1,1.82,1.82,0,0,1-.85.55,4.91,4.91,0,0,1-.93.16,4.91,4.91,0,0,0-.83.13,1.67,1.67,0,0,0-.7.45.9.9,0,0,0-.14.93.67.67,0,0,0,.34.4l-.4.12a.89.89,0,0,0,0-.62,1.27,1.27,0,0,0-.43-.59,1.56,1.56,0,0,0-.79-.3,2.14,2.14,0,0,1-.93.5c-.36.09-.63.16-.8.22a2.55,2.55,0,0,0-.81.38,1.24,1.24,0,0,0-.37.74,1.52,1.52,0,0,1,.56.77,2.86,2.86,0,0,1-.17,1.31,2.84,2.84,0,0,0-.14,1.42,1.29,1.29,0,0,0,.19.37,1.91,1.91,0,0,0-.75.05,1.86,1.86,0,0,0-.68.4,1.1,1.1,0,0,0-.32.71,1.53,1.53,0,0,0,.43.32l.61.34a.8.8,0,0,0,.71-.4l.4-.82a17.36,17.36,0,0,1,1,2.66,3.51,3.51,0,0,0,2.09,2.55,1.13,1.13,0,0,0,.82-.54c.13-.44.23-.76.32-1a1.06,1.06,0,0,0-.68-.76l-.2.06c0-.09.06-.16.26-.23a2.22,2.22,0,0,0,.48-.18l.67,1.89a4.11,4.11,0,0,1,.89-.38,14.86,14.86,0,0,1,1.72-.35,13.58,13.58,0,0,0,1.59-.31,3.26,3.26,0,0,0,1.09-.53,1.77,1.77,0,0,0,.53-.94.83.83,0,0,0-.58-.45,1.69,1.69,0,0,0-.81.08c-.26.1-.44.17-.56.2-.41.13-.68,0-.8-.36.5-.25.94-.45,1.3-.62a1,1,0,0,0,.58-.93,1,1,0,0,0-.36-.75c-.22-.23-.46-.48-.72-.77a.68.68,0,0,1,0-.4,1.68,1.68,0,0,1,.33-.5,2.53,2.53,0,0,1,.83,0c.24.06.64.17,1.17.35-.3.33-.56.62-.76.87a1.21,1.21,0,0,0-.31.83.68.68,0,0,0,.36.45,1.27,1.27,0,0,0,.7.16l.5-.15a5.53,5.53,0,0,0,.55-.21,1.71,1.71,0,0,1,1-.06c0,.22-.38.53-1.09.93s-1,.79-.86,1.19a2.21,2.21,0,0,0,.36.58c.4,0,.63.18.71.43a1.87,1.87,0,0,1-.1.9,3,3,0,0,0-.16.84l1.91.67c-.81.26-1.11.88-.88,1.89a10.57,10.57,0,0,1,.32,1.8,1.19,1.19,0,0,1-.79-.08c-.3-.13-.58-.26-.84-.4a1.38,1.38,0,0,0,.12-.9c-.14-.46-.58-.74-1.28-.83a3.54,3.54,0,0,1-1.72.12c-.76-.07-1.21-.12-1.36-.12a5.16,5.16,0,0,0-.14-.71.61.61,0,0,0-.54-.46,1,1,0,0,1-.47.19l-.39.08a.61.61,0,0,0-.48.54l.68,1.5-.57.17A4.71,4.71,0,0,0,76,146a1.2,1.2,0,0,0-.28,1.39,1.89,1.89,0,0,1,.56.84,2.38,2.38,0,0,1,0,1,1.28,1.28,0,0,0,.26.74,1.61,1.61,0,0,1,.29.68,4.88,4.88,0,0,0-1.13.72,1.78,1.78,0,0,0-.6,1,1,1,0,0,0,1.16.54c.54-.09,1.06-.18,1.56-.29l.26.86a1.64,1.64,0,0,1-.38.16c-.34.08-.6.14-.77.2a1.72,1.72,0,0,0-.59.27,1,1,0,0,0-.2.59.68.68,0,0,0,.32.51l.61.39a2.19,2.19,0,0,1,.5-.26c.49-.15.93.19,1.35,1s.88,1.22,1.4,1.18l-.37,1.27c.38.52.71.73,1,.63a1.8,1.8,0,0,0,.66-.6,1.67,1.67,0,0,1,.74-.63c.33-.1.7.06,1.13.48l.69-.24a2.3,2.3,0,0,1,1.18-.15,1.18,1.18,0,0,1,.64.57.91.91,0,0,1,.45.51c.06.17,0,.49-.3.94s-.31.81-.13,1.07a.94.94,0,0,1-.32.22,2.81,2.81,0,0,1-.51.22,3.26,3.26,0,0,1-.92.15,8.77,8.77,0,0,1-1.25-.1,1.59,1.59,0,0,0-1.42-1.44,1.09,1.09,0,0,0-.82.53c-.13.43-.24.76-.31,1l.93.88a13,13,0,0,1-1.33.55l-.91.31a18.65,18.65,0,0,1-2.11.55l-3.32.51a1.65,1.65,0,0,0-.09-.4c-.15-.39-.26-.7-.32-.92a2,2,0,0,1-.12-.78.63.63,0,0,1,.37-.49,1.47,1.47,0,0,1,.93-.76,4.09,4.09,0,0,1,1.23-.12,4.41,4.41,0,0,0,1,0c.36-.11.46-.41.3-.92,0-.11-.13-.34-.28-.67L75.27,159l-.14.26.92-.7a.7.7,0,0,0,.27-.94.82.82,0,0,0-.51-.63,1.25,1.25,0,0,0-.9-.08c-.09.1-.23.1-.42,0s-.39-.2-.63-.34a3.13,3.13,0,0,1,.79-.7q.72-.52.57-1a2.22,2.22,0,0,0-.17-.31l-1-.25a2.29,2.29,0,0,1,.24-.76,1.34,1.34,0,0,0,.08-1,1.44,1.44,0,0,0-1-.35l-1,0a8.32,8.32,0,0,1,.73-.73,1.8,1.8,0,0,0,.68-1.3,1.22,1.22,0,0,1-1.06-.82,3.17,3.17,0,0,1-.07-.93,3.09,3.09,0,0,0-.07-.92c-.14-.45-.59-.68-1.33-.67.13,0,.3-.26.52-.66a1.2,1.2,0,0,0,.1-1.09.94.94,0,0,0-.42-.65c-.25-.17-.51-.37-.8-.6a.89.89,0,0,1,.19-.67.85.85,0,0,0-.69-1c-.37-.14-.7-.25-1-.35.13-.14.26-.28.4-.45a1.49,1.49,0,0,0,.32-.64c0-.23-.05-.37-.06-.41-.1-.31-.43-.49-1-.53s-.9-.22-1-.52a1.21,1.21,0,0,1,0-.54,2,2,0,0,0,1.12-.13c.11-.11.13-.29,0-.56a1.56,1.56,0,0,0-1,0,1.47,1.47,0,0,1-.63.1c-.1,0-.26-.27-.48-.74a2.57,2.57,0,0,1,.92-.49,1.36,1.36,0,0,0,.89-.82,1.29,1.29,0,0,0-.92-.68,3.44,3.44,0,0,0-1.34.18,5.84,5.84,0,0,0-.59.2c-.2.07-.39.14-.59.19a2.37,2.37,0,0,1-1.42.15,1.65,1.65,0,0,1-.83-.61.93.93,0,0,0,0-.47c-.06-.2-.34-.36-.84-.5a2.69,2.69,0,0,1-1-.39,3.53,3.53,0,0,1,1.13-1,8.2,8.2,0,0,1,1.59-.65c.33-.11.67-.2,1-.29s.65-.18,1-.28a6.88,6.88,0,0,0,1.54-.66.58.58,0,0,0,.42.19,1.36,1.36,0,0,0,.55-.09,2.4,2.4,0,0,0,.84-.44M65,134.27a.77.77,0,0,0,.57.46,3.06,3.06,0,0,0,1-.17l.39-.12a5.64,5.64,0,0,0,.45-.5.46.46,0,0,0,0-.61.94.94,0,0,0-.9-.12,2.21,2.21,0,0,0-.71.4c-.23.19-.48.42-.74.66m9.1,29.1.49.28.14-.25c-.11-.12-.32-.12-.63,0m1.92-.59a.89.89,0,0,1,.12.24.93.93,0,0,0,.06.21c0,.14.12.19.23.18-.07.22-.15.45-.22.69a1.8,1.8,0,0,1,.77-.56.88.88,0,0,1,.43,0,.52.52,0,0,0,.36-.44,6.07,6.07,0,0,1,.07-.63,1,1,0,0,0-1.15-.3.92.92,0,0,0-.67.64m-1.72-12.35a.82.82,0,0,0,1,0c.25,0,.39-.06.41-.25a.82.82,0,0,0-.16-.58,2.15,2.15,0,0,0-.5,0l-.42.05a.47.47,0,0,0-.32.75m-3.84-15.6-.89.28.26.86.9-.28Zm1.08,5.24a.81.81,0,0,0,.78.09c.09-.1.11-.27,0-.52a.51.51,0,0,0-.65-.23c-.4.12-.45.34-.16.66m.57,1.85.17.56.5-.15a.55.55,0,0,0,.09-.42.33.33,0,0,0-.38-.07,1.33,1.33,0,0,1-.38.08m7,20.89a.85.85,0,0,0,.39-1.1.57.57,0,0,0-.46-.07.6.6,0,0,0-.39.32.55.55,0,0,0,.46.85m-1.68-6.14.2.66a1.57,1.57,0,0,0,.45-.07c.14,0,.2-.12.19-.23s-.26-.26-.38-.39a.39.39,0,0,0-.46,0m-1.69-13.33a.76.76,0,0,0-.43.65,1.64,1.64,0,0,0,.15.92.58.58,0,0,0,.47.23,3.65,3.65,0,0,0,.71-.16,1.68,1.68,0,0,0,0-1.61.72.72,0,0,0-1,0m8,17.18.1.3.29-.09-.09-.29Zm-3.92-17.88.2.66.66-.2-.16-.5c-.07-.07-.19-.08-.37,0a1.09,1.09,0,0,1-.33.07m9.19-7.18c.16,0,.27.17.34.41l-.6.18Zm-1.12-2.94a2.55,2.55,0,0,1,1.47.31,1.39,1.39,0,0,1-1.08.95Z" transform="translate(-0.3 -0.17)"/><path class="cls-4" d="M97.35,151.87c-.14,0-.23-.05-.28-.21a2.9,2.9,0,0,0-.08-.37,4.82,4.82,0,0,1,.82-.4l.56-.21.85-.26a7.84,7.84,0,0,0,1.09-.42,3,3,0,0,0,.82-.7,2.4,2.4,0,0,0-.09-.41,5.33,5.33,0,0,1-.2-.52c-.11-.35,0-.58.18-.71a.84.84,0,0,1,.36.47,3.68,3.68,0,0,0,.12.72.71.71,0,0,0,.55.49l.49-.16a1.71,1.71,0,0,0,.79-.42.75.75,0,0,0,.08-.75c.42.5.8.75,1.13.74a.75.75,0,0,0,.6-.4,1.17,1.17,0,0,0,.14-.73,1.62,1.62,0,0,1-.43-.34,1.18,1.18,0,0,1-.23-.4,3.47,3.47,0,0,1,.22-1.55,3.3,3.3,0,0,0,.2-1.65,2.29,2.29,0,0,0-.28-.52c-.16-.25-.37-.59-.63-1a6.45,6.45,0,0,1-.57-1.25,2.68,2.68,0,0,1-.12-.51,2.52,2.52,0,0,1-.52-.74,7.4,7.4,0,0,1-.34-.87l-.15-.5a3.46,3.46,0,0,0-.58-1.19c.07,0,.14,0,.19-.11a1.13,1.13,0,0,0,.12-.17,1.14,1.14,0,0,0,1.31.17,1.23,1.23,0,0,0,0-1.08,1.44,1.44,0,0,0-.89-.29,4.22,4.22,0,0,0-1.09.21l-.5.16a1.83,1.83,0,0,0,.25-.61,1.28,1.28,0,0,0,0-.48,3.27,3.27,0,0,0-.59-.89,3.4,3.4,0,0,1-.59-.92,1.33,1.33,0,0,1,.12-1,1.07,1.07,0,0,1-.3-.48,3.09,3.09,0,0,1,0-1,3.45,3.45,0,0,0-.06-1,1.53,1.53,0,0,0-.87-.92,1.85,1.85,0,0,0-1.16-1.42l.72-.47a.72.72,0,0,0,.32-.75,4.53,4.53,0,0,0-.68-1.13,3.37,3.37,0,0,0-1-.81,3.12,3.12,0,0,0-.8.34A.77.77,0,0,0,96,125l.28.93a1.35,1.35,0,0,1-.42-.7c-.06-.25-.1-.43-.13-.53a.88.88,0,0,0-.28-.47,1.11,1.11,0,0,0-.63-.13l-1.26.43-1.24.41a7.69,7.69,0,0,1-2.78.43,3,3,0,0,1-2.07-1.21,5,5,0,0,1-.78,0,.9.9,0,0,1-.63-.47c0-.37.17-.66.62-.88L88,122.1a3.07,3.07,0,0,1,.91,0,3.57,3.57,0,0,0,.91,0,1.09,1.09,0,0,0,.75-.89,8.07,8.07,0,0,1,1.64-.16,7.63,7.63,0,0,0,1.73-.19,2.24,2.24,0,0,0,1.07-.72,4.68,4.68,0,0,0,2.62-.16,19.28,19.28,0,0,1,2.24-.54,6.63,6.63,0,0,0,.19.7,15.22,15.22,0,0,0,.73,1.74,17,17,0,0,1,.71,1.64,3.88,3.88,0,0,1,.18,1.41.85.85,0,0,1,.32.29,1.78,1.78,0,0,1,.27.6l.15.5a2.06,2.06,0,0,0,.38.73.87.87,0,0,0,.71.27,7.79,7.79,0,0,1-.3,1.22,3,3,0,0,0-.19,1.32,1.42,1.42,0,0,0,.58.72,2.34,2.34,0,0,0,.11.69,3.54,3.54,0,0,0,.28.57l1.17.25a1.14,1.14,0,0,0-.62.61,1.18,1.18,0,0,0-.12,1,.74.74,0,0,0,.29.4,1.08,1.08,0,0,1,.38.62c0,.09.06.24.11.44a2.6,2.6,0,0,0,.1.48,2,2,0,0,0,.35.7,1.41,1.41,0,0,0,.75.37,1.38,1.38,0,0,0-.12,1,3.52,3.52,0,0,0,.68,1,3.16,3.16,0,0,1,.7,1,1.25,1.25,0,0,1,.05.63,4.69,4.69,0,0,0,.46.25c.27.14.42.25.45.34a4.57,4.57,0,0,1-.84.51,1.56,1.56,0,0,0-.83.9c.16.51.71.92,1.66,1.25s1.49.7,1.62,1.14a4.68,4.68,0,0,1,.1.56.7.7,0,0,0,.85.38,5.09,5.09,0,0,1,.69-.32c.29-.09.5.09.64.53a1.23,1.23,0,0,0,1.21.17,1,1,0,0,0,.73-.67,6.7,6.7,0,0,0,2.48-.32,2.24,2.24,0,0,0,.45-.18l1.45.24a2.28,2.28,0,0,1-.53,1,1.24,1.24,0,0,0-.37,1.12.78.78,0,0,0,.75.24,2,2,0,0,1,.69,0,1.1,1.1,0,0,1-.83.83,5.38,5.38,0,0,1-.75.14,5.94,5.94,0,0,0-.66.11,1.33,1.33,0,0,0-.81.65,2.36,2.36,0,0,0-.72.12,7.13,7.13,0,0,0-1,.43,10.13,10.13,0,0,1-1.08.46,2.65,2.65,0,0,1-.74.11,1.53,1.53,0,0,1-.74-.2l-11.35,3.49a3.74,3.74,0,0,1-.87-.23,4.31,4.31,0,0,0-1-.25,1.38,1.38,0,0,1-.78-.42,6.21,6.21,0,0,1-.65-.75m.61.31.36.18a.39.39,0,0,0,.38,0c.13-.06.16-.17.12-.32s-.09-.26-.12-.4a.48.48,0,0,0-.58-.22c-.31.1-.43.28-.35.54a.74.74,0,0,0,.19.23m-8.4-28.47.13.43a.66.66,0,0,0,.43.48,1.3,1.3,0,0,1,.4-.16c.13,0,.19-.12.17-.24a.65.65,0,0,0,0-.39.89.89,0,0,0-.28-.4.52.52,0,0,0-.53-.11.49.49,0,0,0-.31.39m6.84-2.61a.42.42,0,0,0-.4.12,2,2,0,0,1-.28.59,1.39,1.39,0,0,0,.2.49.54.54,0,0,0,.4.19c.06,0,.14,0,.25-.25l.79.33.11-.22a.51.51,0,0,1-.37-.21,2.38,2.38,0,0,1-.2-.48c-.11-.35-.28-.54-.5-.56m9.31,27.18.09.3.26-.08-.09-.3Zm-4.28-16,.37-.12a.5.5,0,0,0,0-.41c-.14-.15-.28-.13-.42,0a.34.34,0,0,0,0,.49m-.23-3-.47.14.19.63.47-.15Zm-1.63-4.35.24.8.16-.06c.37-.23.52-.46.44-.68a.42.42,0,0,0-.21-.25Zm7,22.14.17.54.3-.1a.76.76,0,0,0,0-.58Zm-.84-4.4.36.47.15-.44c-.1-.1-.28-.1-.51,0M108.9,147c.44-.06.58-.36.42-.89a.8.8,0,0,0-.38-.5.65.65,0,0,0-.58.36.87.87,0,0,0-.11.69c.08.26.3.37.65.34m-1.13-2.33a6.12,6.12,0,0,1,.32-.82.63.63,0,0,1,.59-.36,1.77,1.77,0,0,1,.24.54.87.87,0,0,1-.17,1,.61.61,0,0,1-.55.06.81.81,0,0,1-.43-.37m6.29,2.95.25.79.16,0a.24.24,0,0,0,.11-.32c0-.12-.07-.24-.11-.37a.85.85,0,0,1-.22-.09.13.13,0,0,0-.19,0" transform="translate(-0.3 -0.17)"/><path class="cls-4" d="M123.56,116.67c.08,0,.3.22.69.66a1,1,0,0,0,1.18.36,1.64,1.64,0,0,0,.25-.61,1,1,0,0,0,0-.52,3.47,3.47,0,0,0-.21-.47,7.16,7.16,0,0,1,2.35-.36,3.07,3.07,0,0,1,2,.81,1.19,1.19,0,0,1,.69-.68,2.69,2.69,0,0,1,1.14,0,2.09,2.09,0,0,0,1.32-.06c.2.66.93,1.22,2.17,1.69s2,.94,2.17,1.43l2.66,5.11a1,1,0,0,0-.14.84,2.71,2.71,0,0,0,.43.72,3.64,3.64,0,0,1,.4.65,1,1,0,0,1-.15.8,6,6,0,0,1,.41,1,5.55,5.55,0,0,1,.19,2.38,8.44,8.44,0,0,1-.69,2.47,5.11,5.11,0,0,0-1.77,2.45,3.68,3.68,0,0,1-2,2.27.9.9,0,0,0-.64-.06c-.23.07-.46.34-.67.81s-.37.71-.48.74-.39-.06-.64-.35a1.77,1.77,0,0,1-.43-.19c-.23-.12-.4-.13-.51,0l-.5,1.35c-.21-.16-.44-.31-.66-.47a1.05,1.05,0,0,0-.8-.17.72.72,0,0,0-.17.74l.17.56c-.29.14-.75,0-1.36-.43s-1.06-.6-1.32-.51a1.79,1.79,0,0,0-.79.6c0-.36,0-.73,0-1.1a.61.61,0,0,0-.49-.42,1.77,1.77,0,0,1-.39.15l-.36.12a.66.66,0,0,0-.44.32l.58.39-.34.4a1.13,1.13,0,0,1-.17-.36c-.08-.23-.18-.36-.28-.37l-.26.66a9.87,9.87,0,0,0-1-1,1.15,1.15,0,0,0-1.15-.26,1.32,1.32,0,0,0-.4.23.89.89,0,0,1-.34-.51.47.47,0,0,1,.32-.24c.49-.15.74-.34.74-.56a.67.67,0,0,0-.3-.63,1.08,1.08,0,0,0-.67-.16l-.74.42a21.59,21.59,0,0,1-1.27-2.12,8.39,8.39,0,0,0-2-2.6,1.31,1.31,0,0,0,.34-.63,1.18,1.18,0,0,0,0-.62,3.24,3.24,0,0,0-.57-1,3.87,3.87,0,0,1-.57-.93,1.26,1.26,0,0,1,0-.6.65.65,0,0,1-.39-.35.67.67,0,0,1,.08-.44,1.13,1.13,0,0,0,.11-.45l-.44-2.14a.72.72,0,0,0,.65-.33,7.06,7.06,0,0,0,.42-.69,2.29,2.29,0,0,1-.31-.63,2.73,2.73,0,0,1,0-1.4c.1-.52.22-1,.32-1.51a5.06,5.06,0,0,1,1.77-1.43,3.9,3.9,0,0,0,1.75-1.64,2.13,2.13,0,0,1,.57.29,1,1,0,0,0,.74.21.6.6,0,0,0,.33-.32,1.76,1.76,0,0,0,.08-1Zm-5.2,10.5a.73.73,0,0,0,1,.21q.21-.06.24-.21a1,1,0,0,0-.08-.56.68.68,0,0,0-.82-.22c-.34.1-.44.36-.31.78m3.3,5.5a.35.35,0,0,0-.19.45,2.71,2.71,0,0,1,.17.45.94.94,0,0,0,.52-.17,1.25,1.25,0,0,0,.17-.54,2.63,2.63,0,0,0-.45-.21.24.24,0,0,0-.22,0m-.8-2.22,0,.52.46-.15c-.09-.31-.24-.44-.44-.37m-1.67-9.28-.27.08.11.36.27-.08Zm6.8-1.7a.69.69,0,0,0-.17.77c.12.33.21.56.26.68a1.12,1.12,0,0,1,0,.48c0,.18-.26.29-.65.34a.91.91,0,0,1-.79-.13.8.8,0,0,1-.37-.7L124,121a1.16,1.16,0,0,1-.14,1,1.6,1.6,0,0,1-.86.57,2.44,2.44,0,0,1-.48.08,2.7,2.7,0,0,0-.09,2,7.22,7.22,0,0,1,.29,1.52c-.19-.21-.36-.42-.52-.63a.54.54,0,0,0-.78-.06.7.7,0,0,0-.25.7c.17.33.36.66.55,1a2.29,2.29,0,0,0,.06,1.26,7,7,0,0,0,.41.95,7,7,0,0,1,.41,1,2.57,2.57,0,0,1,.12,1c.1.18.36.55.78,1.12a5.53,5.53,0,0,1,.76,1.3,1.66,1.66,0,0,1,.06.55,1.16,1.16,0,0,0,.8,1l.53-.88a1.21,1.21,0,0,1,.79.28,1.49,1.49,0,0,1,.37.66c.07.3.12.51.16.64a1.14,1.14,0,0,0,.8.83,1,1,0,0,0,.64-.34,5.42,5.42,0,0,1,.44-.38.86.86,0,0,1,1.08.67,1.77,1.77,0,0,1,.05.75,1,1,0,0,0,1,.23.61.61,0,0,0,.36-.26l-.19-1.2c.38-.24.81-.49,1.27-.75a5.86,5.86,0,0,1,1.12-.53l.53-.16.41,0A.75.75,0,0,1,135,134a2.92,2.92,0,0,0,1.08-.05.75.75,0,0,0,.49-.54q0-.36-.06-.42c-.09-.28-.33-.37-.72-.25l-.8.29c-.26.08-.43.05-.52-.07l1.49-1.09a1.51,1.51,0,0,0,.63-1.33l1.29.69.17-.38a.83.83,0,0,0-.56-.71l-.91-.32c-.06-.41.19-.78.74-1.1-.06-.19-.12-.38-.18-.55s-.12-.34-.18-.49a3.66,3.66,0,0,1-.17-1.22,1.83,1.83,0,0,1,.48-1.08l-1.65-.18a.68.68,0,0,0,.37-.51,1.42,1.42,0,0,0-.05-.68.87.87,0,0,0-.72-.64l-1.1-.21a4.79,4.79,0,0,0-1.33-1.2,2.9,2.9,0,0,1-1.22-1.3,1.76,1.76,0,0,1-.07-.81l-2.08.64c-.23-.29-.69-.39-1.37-.32s-1.05-.15-1.12-.69a.77.77,0,0,0-.91,0m-5.31,4.31.51.35.14-.26c-.22-.06-.31-.12-.28-.2ZM127.17,137a2.15,2.15,0,0,1-.29.85.57.57,0,0,1-.48.18,4.13,4.13,0,0,0,.12.5.27.27,0,0,0,.28.24l.89-.67a2.29,2.29,0,0,0-.07-.44,1.38,1.38,0,0,0-.45-.66m4.53-.31.54.26a.57.57,0,0,0,.55,0,.29.29,0,0,0,.11-.36,4.15,4.15,0,0,1-.16-.42.49.49,0,0,0-.6-.18c-.4.12-.54.37-.44.72m-4.43-20.48-.27.08.08.26.26-.08Zm6.92,19.49a1.71,1.71,0,0,1,.17.42c0,.16.12.24.23.26a4,4,0,0,0,.42-.14.18.18,0,0,0,.15-.22.75.75,0,0,0,0-.33c-.08-.24-.29-.31-.65-.19a.7.7,0,0,0-.33.2m2.41-.52.27.82.42-.13a.33.33,0,0,0,.06-.38,1.69,1.69,0,0,1-.07-.34c0-.08-.15-.1-.3,0a1.22,1.22,0,0,1-.38.08m-3.8-15.14a1.42,1.42,0,0,0,.74.06,1.47,1.47,0,0,1,.25-.26c.15-.14.13-.3,0-.5a.73.73,0,0,0-.55,0c-.4.13-.55.37-.43.72m0-2.35a.58.58,0,0,0,.42-.82.59.59,0,0,0-.31-.34.43.43,0,0,0-.52.27.82.82,0,0,0-.07.53.49.49,0,0,0,.48.36m5.11,8a.37.37,0,0,1,.3.27l.27-.09.17-.25c.1-.14.12-.24.06-.29a.53.53,0,0,0-.43-.08.65.65,0,0,0-.37.44" transform="translate(-0.3 -0.17)"/><path class="cls-4" d="M154.13,109.43a.73.73,0,0,1,.58,0,1,1,0,0,1,.42.33,1.35,1.35,0,0,1,.22.45,1.88,1.88,0,0,1,.08.63c0,.22,0,.46,0,.73a1.64,1.64,0,0,0,1.34.13,6.85,6.85,0,0,0,.86-.34,2.85,2.85,0,0,1,.7-.25c.05-.3.31-.57.77-.8s.67-.41.63-.54a.91.91,0,0,0-.42-.41l-.56.17-.36-1.18.95-.52c.77,1,1.54,2,2.33,2.93l1.39-1.11a3.14,3.14,0,0,1,.71,1.19c.33.72.71,1,1.13.78-.12.63-.18,1.07-.21,1.29a2,2,0,0,0,.1.8,1.53,1.53,0,0,0,.16.39l-2.05,1.46a.85.85,0,0,1-.81-.15.5.5,0,0,1-.15-.49c.15-.31.28-.62.43-.93a.33.33,0,0,0,.19.3l.25.17a.78.78,0,0,0,.24,0l.13,0a1.24,1.24,0,0,0,.65-.44,1.57,1.57,0,0,0,.32-.8,1.43,1.43,0,0,1-.28-.53,5.63,5.63,0,0,1-.13-.65,3.51,3.51,0,0,0-.11-.58.85.85,0,0,0-.64-.68,1.63,1.63,0,0,0-.67,0,1.09,1.09,0,0,0-.67.63,2.28,2.28,0,0,0-.18,1,1,1,0,0,1,.3.52,2.9,2.9,0,0,0,.21.55.58.58,0,0,1-.38-.28,2.31,2.31,0,0,1-.31-.63.53.53,0,0,0,.21-.53,1.57,1.57,0,0,0-.32-.45,1.48,1.48,0,0,1-.34-.51,9.07,9.07,0,0,0-1.1,0,5.17,5.17,0,0,0-1,.21,2.71,2.71,0,0,0-1.62,1.3,4.44,4.44,0,0,0-.76-.16,1.66,1.66,0,0,0-.77,0l-.29.1-.24.86a5.53,5.53,0,0,0-.64-.17,1.14,1.14,0,0,0-.58,0,1.29,1.29,0,0,0-.52.34,1.24,1.24,0,0,0-.23.92,1.85,1.85,0,0,1-.11,1,.48.48,0,0,0,.48,0,3.58,3.58,0,0,1,.5-.12,1.77,1.77,0,0,0-.4,1.44c0,.74-.22,1.14-.73,1.23-.47.41-.68.76-.58,1a2.2,2.2,0,0,0,.59.61,1.88,1.88,0,0,1,.61.71,1.07,1.07,0,0,1-.37,1,1.38,1.38,0,0,1,.76.85,3.06,3.06,0,0,1,0,1.18,3.3,3.3,0,0,0,0,1.08c.12.42.55.65,1.27.69a1.6,1.6,0,0,0-.49.48,1,1,0,0,0-.18.67,1.16,1.16,0,0,0-.93-.19,1.35,1.35,0,0,0-.72.7.53.53,0,0,0-.2.64.83.83,0,0,0,.39.44.77.77,0,0,0,.71.08,2.37,2.37,0,0,0,.66-.39,2.27,2.27,0,0,1,.59-.38.82.82,0,0,1,.73.13c-.16.29-.29.54-.4.76a.83.83,0,0,0-.06.69,9.7,9.7,0,0,0,3.14-.12,7.11,7.11,0,0,1,3.11,0,4.62,4.62,0,0,1,1.55.9A3.13,3.13,0,0,1,164,131l-.14,1.53a2.05,2.05,0,0,0-1.1.08c-.37.14-.65.24-.82.29a1.33,1.33,0,0,1-.73.08,1,1,0,0,1-.52-.27l-.53-.27a.37.37,0,0,0-.44.06l-.2.37a.37.37,0,0,0,0,.4l.47.26a7,7,0,0,1-.67.33,6.05,6.05,0,0,1-.7.27,2.41,2.41,0,0,1-1.12.11.82.82,0,0,1-.64-.65.66.66,0,0,0-.46-.38,1.18,1.18,0,0,0-.67,0,2.27,2.27,0,0,0-.54.27,2.43,2.43,0,0,1-.86,1.73,5.86,5.86,0,0,1-2,1l-1.26.35c-.56.14-1,.26-1.25.35a5.34,5.34,0,0,0-.82.31,3.85,3.85,0,0,1-.4.17.66.66,0,0,1-.68-.08,1.29,1.29,0,0,1-.38-.64c-.08-.26-.16-.56-.23-.89a4.63,4.63,0,0,1-.13-.52,1.44,1.44,0,0,0-.34-.62,3.29,3.29,0,0,1,1.19-.08,4.09,4.09,0,0,0,1.27-.06,1.39,1.39,0,0,0,.46-.25,1.38,1.38,0,0,0,1.4.18,2.12,2.12,0,0,0,.4-.95,6.57,6.57,0,0,0,.06-1.21.59.59,0,0,1-.46-.24,3.43,3.43,0,0,1-.26-.66,3.56,3.56,0,0,0,1.14-.18,1.29,1.29,0,0,0,.86-.65,22.11,22.11,0,0,1-.54-2.39c-.22-1.12-.38-1.83-.46-2.12a5.44,5.44,0,0,0-.57-1.32,3.66,3.66,0,0,0-.94-1,1.77,1.77,0,0,0,.35-.78,1.94,1.94,0,0,0-.07-.78c-.06-.18-.16-.43-.29-.73s-.2-.48-.2-.5a2.55,2.55,0,0,1-.11-.44.94.94,0,0,0,.88.13,1.92,1.92,0,0,0,.45-.23l.33-.23s0-.2-.05-.49c-.3-.07-.55-.13-.74-.19a1.06,1.06,0,0,0-.56,0l-.25.48a2,2,0,0,1-.85-1,2.63,2.63,0,0,1,0-1c.06-.46.1-1,.17-1.55a1.06,1.06,0,0,1,.42,0,1,1,0,0,0,.51,0,.4.4,0,0,0,.25-.26.66.66,0,0,0,.2-.64,3.1,3.1,0,0,0-.38-.6,3.05,3.05,0,0,1-.4-.6,1,1,0,0,0-.49,0,1.36,1.36,0,0,0-1,1.32l.12.4c.13-.21,0-.41-.34-.6a1.4,1.4,0,0,0-1.11-.11,1,1,0,0,0-.51.37l-1.2.24-.69.16-.43.64a1.82,1.82,0,0,0-.65-.76,1.88,1.88,0,0,1-.65-.79,1.23,1.23,0,0,1,0-.61,2.11,2.11,0,0,1,.35-.79l-.05-.17a1,1,0,0,0-.51,0l-.37.1c-.27.06-.46.1-.57.14l-.3.1a.87.87,0,0,0-.28,1,.53.53,0,0,0,.28.34c.45,0,.71.05.77.27a1.21,1.21,0,0,1,0,.51,1.08,1.08,0,0,0,0,.41q0,.17.39.09a1.08,1.08,0,0,0-.8-.24l-.72,0a3.37,3.37,0,0,0-.51-1.15,9,9,0,0,1-.49-.79,3.24,3.24,0,0,1,1-.59l.74-.3,1.05-.29c.48-.12.83-.22,1.05-.29a4.46,4.46,0,0,0-.28.89,1.16,1.16,0,0,0,0,.58c.09.31.39.44.88.38l.4-.5a1.72,1.72,0,0,0,.29-.54l-.39-.89a2.15,2.15,0,0,1,.66.71,1.41,1.41,0,0,0,1,.69,2.36,2.36,0,0,1,.57-.29,7.92,7.92,0,0,1,1.11-.19,5.92,5.92,0,0,0,1.06-.18,1.62,1.62,0,0,0,1.1-1,1,1,0,0,0,.74,0,5.22,5.22,0,0,1,.71-.17l.57-1.08a.45.45,0,0,1,.46.32,1.3,1.3,0,0,1-.12.76.46.46,0,0,0-.24.28,1.08,1.08,0,0,1-.2.3.85.85,0,0,1,.12.28c.05.17.14.27.27.28.45-.55.91-1.12,1.4-1.7a1.52,1.52,0,0,0,.15-1.24,1.68,1.68,0,0,0-.16-.42.61.61,0,0,1,.06-.74m-3,26.24.36-.11a.28.28,0,0,0,.05-.3,1.37,1.37,0,0,1-.08-.37c-.23,0-.35,0-.38.22a1,1,0,0,0,.05.56m-4.7-18.7.49.18c-.16.19-.18.34-.08.42a.5.5,0,0,1-.53,0ZM153,132.38l-.6.18a.77.77,0,0,0-.48.33,1,1,0,0,0,.33.54.6.6,0,0,0,.57.12,1,1,0,0,0,.44-.35Zm-3.7-14.89c0,.23.2.38.53.43a.89.89,0,0,1,.62.34l.14-.26a.81.81,0,0,0,.17-.74c-.13-.42-.42-.55-.89-.42a1,1,0,0,0-.57.65m1.74,4.93a.53.53,0,0,0,.42-.2c0-.21.06-.36.07-.47a.61.61,0,0,0-.53.23.35.35,0,0,0,0,.44m2.37,7.08.42.27a.47.47,0,0,0,.45-.29c.11-.2.2-.31.26-.33a.43.43,0,0,0-.16-.42.6.6,0,0,0-.44,0c-.53.16-.71.42-.53.78M151,113.36a1.75,1.75,0,0,1,.06.74,3.41,3.41,0,0,0,0,.72.79.79,0,0,0,.74.5l-.17.15c0,.2.1.29.29.29a.44.44,0,0,1,.35.13c-.16.3-.29.54-.4.76a.72.72,0,0,0-.09.59.69.69,0,0,0,.68.22,1.19,1.19,0,0,0,.5-.37l.38-.44c0-.19,0-.31,0-.35a.56.56,0,0,0-.47-.38l-.72-.2.46-.83a2.14,2.14,0,0,0,0-.79c-.08-.22-.32-.37-.73-.45a2.55,2.55,0,0,1-.88-.29m5.62,16.9a1.17,1.17,0,0,0-.2.89c.07.22.43.35,1.06.38s1,.17,1.12.43a.93.93,0,0,0,.06-.49,1.68,1.68,0,0,0-.41-.45,1.24,1.24,0,0,1-.43-.52.61.61,0,0,1,0-.33.48.48,0,0,0-.56-.18,5.9,5.9,0,0,1-.64.27m1.77-.26c0,.25,0,.39.2.43a1.34,1.34,0,0,0,.6-.06,4,4,0,0,0,.42-.66.48.48,0,0,0-.08-.57,1,1,0,0,0-.69,0,.88.88,0,0,0-.52.36.37.37,0,0,0,.07.5M155,114.44a.28.28,0,0,1,.3.14,1.45,1.45,0,0,0,.24.31l-.57.18Zm1.85-4.22a.36.36,0,0,1-.19-.37.35.35,0,0,1,.27-.3c.18-.06.33,0,.47.22l.08.26Z" transform="translate(-0.3 -0.17)"/><path class="cls-3" d="M111.29,56.27c-.9-.48-1.8-1-2.72-1.41a3.51,3.51,0,0,0-1.09-.51,12.91,12.91,0,0,0-2.12-1.1c-.86-.43-1.77-.73-2.58-1.22l-.46-.42a2.52,2.52,0,0,0-1.75-.93,1.57,1.57,0,0,0-1.12-.15l-.17,0c-.13-.15-.28,0-.42,0a2.4,2.4,0,0,0-2.47,1.93l-.57.94a4.23,4.23,0,0,0-.32.42c-.18.29-.3.35-.52,0s-1.52-.67-1.93-.93h0A4.88,4.88,0,0,0,92,52.18l0,0a19.6,19.6,0,0,0-3.07-1.63,5.19,5.19,0,0,0-1.2-.54,4.21,4.21,0,0,0-1.44-.52,1.34,1.34,0,0,1-.51-.17,8.48,8.48,0,0,0-1.13-.56c-2.23-1-4.45-2-6.62-3-.3-.15-.58-.37-1-.28,0-.2-.18-.28-.34-.36a9.21,9.21,0,0,1-1.34-.75c-.55-.41-1.13-.77-1.72-1.14a1.18,1.18,0,0,0-.57-.31A10.18,10.18,0,0,1,73.57,44a1.48,1.48,0,0,0,1.16,1,14.11,14.11,0,0,0,1.8,1.66,3.4,3.4,0,0,0,1.29.74.15.15,0,0,0,.16.11h0l.93,1,.66,1.1c.14.18.28.36.41.55a4.43,4.43,0,0,0,.76.92c.12.12.22.34.47.26,0,.37.39.44.62.57.61.36,1.24.67,1.85,1a2.58,2.58,0,0,0-.85.35.26.26,0,0,1-.27,0,3.4,3.4,0,0,0-1.18-.2,1.2,1.2,0,0,1-.2,0h0A4.62,4.62,0,0,0,80,52.84c-1.09-.12-2.15-.46-3.24-.51a.52.52,0,0,0-.42,0,.15.15,0,0,0-.09,0l0,0,0,0a.13.13,0,0,0-.09,0c-.59-.1-1.19-.19-1.78-.3h0a7.9,7.9,0,0,0-1.53-.35L73,52a4.85,4.85,0,0,1,1.72,1.45,3.25,3.25,0,0,0,1.45,1.12,9.17,9.17,0,0,1,1.11.72,1.61,1.61,0,0,0,1.06.59,3.94,3.94,0,0,1,2,1.07,2.81,2.81,0,0,0,1.42.85,1.19,1.19,0,0,0,.61.12,1.18,1.18,0,0,1,1,.52,2,2,0,0,0,2.23,1.42L87,59.82l.21.12a1,1,0,0,1,0,.28c-.15.42.08.41.38.36l.22-.06a3.22,3.22,0,0,0,.93-.14A3.33,3.33,0,0,0,90.24,60c.52-.25.13-.84.72-.81a7.92,7.92,0,0,0-1.26,2.06c-.15.28-.43.53-.36.91h0c-.2.09-.24.28-.32.45s-.53,1.88-.68,2.2a16.47,16.47,0,0,0-1.12,1.34,28.74,28.74,0,0,1-2.59,2.27c-.43.4-.94,1-.94,1a.55.55,0,0,1-.2.53c-.26.21-.22.53-.35.71s-.66.82-.58,1.15.38,0,.71,0a3.49,3.49,0,0,0,1.11-.52l.45-.22s0,.77.42.5c0,0,.14.36,1.06-.1a11,11,0,0,0,2.46-1.83c1-.87,1.43-1.67,1.62-1.75s.5-.36.67-.42a8.38,8.38,0,0,1,.9-.1s.15.11.61,0a8.19,8.19,0,0,0,2-1.48,31.29,31.29,0,0,0,2.62-2.75,5.06,5.06,0,0,0,.3-.5A1.88,1.88,0,0,0,98,62s0,0,0,0c.15-.08.18-.25.26-.38a3.62,3.62,0,0,0,.68-1,12.41,12.41,0,0,0,.75-1.39h0a42.2,42.2,0,0,0,1.43-4,3.43,3.43,0,0,1,1.62-1.78,2.47,2.47,0,0,1,1.61.07c.68.25,1.37.48,2,.71h0a.75.75,0,0,0,.51.22,1,1,0,0,0,.53.25c1.38.6,2.72,1.32,4.16,1.88,0-.28-.19-.3-.31-.36M83.72,54.86h0c.15.07.21.51.52.14-.31.37-.37-.06-.52-.14M82,50.38c.12-.19.31-.32.14-.57-.3.16-.45,0-.64-.2.19.16.34.36.63.19.18.26,0,.39-.13.58m13.65,6.27c-.12-.1-.18-.29-.33-.34.15,0,.21.24.33.34m-.14.38a.53.53,0,0,1-.28.27.53.53,0,0,0,.28-.27M94.1,59.54c0-.06,0-.13.07-.18a.55.55,0,0,0-.06.18l-.09.2a1.67,1.67,0,0,0,.08-.2m-1.91-2.09.1-.05-.09.06c0,.07,0,.15,0,.22s0-.15-.06-.23m7.12-4A.42.42,0,0,1,99,54a.42.42,0,0,0,.34-.47l.23-.06-.23.06m-.13-2.23c0-.06,0-.12,0-.17a.9.9,0,0,1,0,.16.25.25,0,0,1,.32-.05.23.23,0,0,0-.31.06" transform="translate(-0.3 -0.17)"/></g></g></g></g></g></svg>